<svg xmlns="http://www.w3.org/2000/svg" viewBox="0 0 24 24" fill="none">
  <rect width="24" height="24" rx="4" fill="#0a0a0b"/>
  <path d="M3 8 C3 6.5, 4 6, 5 6 L9 6 C10 6, 10.5 6.5, 11 7 L12 8.5 L19 8.5 C20.1 8.5, 21 9.4, 21 10.5 L21 18 C21 19.1, 20.1 20, 19 20 L5 20 C3.9 20, 3 19.1, 3 18 Z" stroke="#f0f1f3" stroke-width="1.5"/>
  <circle cx="8.5" cy="14" r="1.3" fill="#c5f82a"/>
  <circle cx="12" cy="11.5" r="1.3" fill="#f0f1f3"/>
  <circle cx="15.5" cy="14" r="1.3" fill="#f0f1f3"/>
  <circle cx="12" cy="16.5" r="1.3" fill="#f0f1f3"/>
  <path d="M8.5 14 L12 11.5 L15.5 14 L12 16.5 Z M12 11.5 L12 16.5" stroke="#f0f1f3" stroke-width="0.9" stroke-opacity="0.5"/>
</svg>
